<svg width="1040" height="400" xmlns="http://www.w3.org/2000/svg" xmlns:xlink="http://www.w3.org/1999/xlink"><defs><circle id="d" cx="55" cy="55" r="55"/><circle id="f" cx="35" cy="35" r="35"/><circle id="h" cx="35" cy="35" r="35"/><circle id="j" cx="69" cy="69" r="69"/><circle id="l" cx="35" cy="35" r="35"/><linearGradient x1=".781%" y1="45.577%" x2="99.008%" y2="45.577%" id="c"><stop stop-color="#1366BA" stop-opacity="0" offset="0%"/><stop stop-color="#1366BA" offset="15.572%"/><stop stop-color="#1366BA" stop-opacity=".58" offset="85.346%"/><stop stop-color="#1366BA" stop-opacity="0" offset="100%"/></linearGradient><path id="a" d="M0 0h1040v400H0z"/></defs><g fill="none" fill-rule="evenodd"><mask id="b" fill="#fff"><use xlink:href="#a"/></mask><use fill="#0C4074" xlink:href="#a"/><g mask="url(#b)" fill="url(#c)"><path d="M-8 249.142h39.168v-27.195H50.83v-24.051h28.808v16.337h26.264v22.033h33.071v-14.32h82.588V167h43.753v15.3h27.684v39.647H426.13v-26.97h30.042v54.165h28.432v-18.108h27.255v26.196h19.81v-17.501h32.08v17.5h28.79v15.579h76.564v-26.715h21.232v-26.19h33.277v16.363h18.032v24.961h30.118V239.73h22.111v-17.782h40.591v-15.225h90.48v15.225h41.21v39.28c33.51 2.665 50.264 2.665 50.264 0v-30.193h23.981v-11.13H1048V445H-8V249.142z" opacity=".1"/><path d="M1048 341.142h-39.168v-27.195H989.17v-24.051h-28.808v16.337h-26.264v22.033h-33.071v-14.32H818.44V259h-43.753v15.3h-27.684v39.647H613.87v-26.97h-30.042v54.165h-28.432v-18.108h-27.255v26.196h-19.81v-17.501h-32.08v17.5h-28.79v15.579h-76.564v-26.715h-21.232v-26.19h-33.277v16.363h-18.032v24.961h-30.118V331.73h-22.111v-17.782h-40.591v-15.225h-90.48v15.225h-41.21v39.28c-33.51 2.665-50.264 2.665-50.264 0v-30.193H-.4v-11.13H-8V537h1056V341.142z" opacity=".2"/></g><g mask="url(#b)"><path stroke="#6486A6" stroke-width="2.4" d="M600.512 241.5l115.795-65.957"/><path d="M611.927 235.537c-4.755 3.357-7.358 8.165-7.809 14.423l-8.135-18.27c4.807 3.523 10.121 4.806 15.944 3.847z" fill="#6486A6"/><g transform="translate(708.055 90.661)"><mask id="e" fill="#fff"><use xlink:href="#d"/></mask><circle stroke="#6486A6" stroke-width="2.4" cx="55" cy="55" r="56.2"/><path d="M86.518 88.578l-20.026-8.015a1.76 1.76 0 01-1.094-1.408l-.664-5.323A21.117 21.117 0 0076.22 55.031v-16.32c-.006-6.37-4.86-11.686-11.198-12.268l-2.27-4.542a3.792 3.792 0 00-4.602-1.853l-13.027 4.654a17.963 17.963 0 00-11.107 15.775v14.554a21.117 21.117 0 0011.486 18.793l-.664 5.314a1.76 1.76 0 01-1.092 1.418l-20.028 8.022a8.754 8.754 0 00-5.529 8.17v12.831c0 .972.787 1.76 1.759 1.76h70.34a1.76 1.76 0 001.76-1.76V96.748a8.754 8.754 0 00-5.53-8.17z" fill="#DFE3E8" fill-rule="nonzero" mask="url(#e)"/></g><path stroke="#6486A6" stroke-width="2.4" d="M810.744 232.233l-20.054-37.072"/><path d="M796.525 205.975c-3.76-4.444-8.775-6.618-15.049-6.522 4.836-2.68 13.835-7.67 17.493-9.696-3.092 5.095-3.907 10.5-2.444 16.218z" fill="#6486A6"/><g transform="translate(793.283 227.614)"><mask id="g" fill="#fff"><use xlink:href="#f"/></mask><circle stroke="#6486A6" stroke-width="2.4" cx="35" cy="35" r="36.2"/><g mask="url(#g)"><g transform="translate(18.189 15.433)"><rect fill="#1A8CFF" x="5.512" y="5.512" width="29.764" height="35.276" rx="1.654"/><rect fill="#6DB5FF" width="29.764" height="35.276" rx="1.654"/><path d="M24.803 25.354a.551.551 0 010 1.103H4.961a.551.551 0 010-1.103h19.842zm0-5.511a.551.551 0 010 1.102H4.961a.551.551 0 010-1.102h19.842zm0-5.512a.551.551 0 110 1.102H4.961a.551.551 0 010-1.102h19.842zm0-5.512a.551.551 0 010 1.102H4.961a.551.551 0 110-1.102h19.842z" fill="#FFF"/></g></g></g><path d="M857.772 222.654c-7.306 0-13.229 5.922-13.229 13.228s5.923 13.228 13.229 13.228c7.305 0 13.228-5.922 13.228-13.228-.008-7.302-5.926-13.22-13.228-13.228z" fill="#FFBA2E" fill-rule="nonzero"/><g transform="translate(855.543 227.654)" fill="#FFF"><path d="M2.024 0a1.832 1.832 0 011.822 2.014l-.72 7.194a1.012 1.012 0 01-1.006.911h-.192c-.52 0-.955-.394-1.007-.911L.2 2.014A1.832 1.832 0 012.024 0z"/><circle cx="2.024" cy="14.167" r="2.024"/></g></g><g mask="url(#b)"><g transform="translate(417.583 184.047)"><circle stroke="#6486A6" stroke-width="2.4" cx="96" cy="96" r="94.8"/><path d="M48.504 39.134h52.948l27.524 27.559v81.575a5.512 5.512 0 01-5.511 5.512H48.504a5.512 5.512 0 01-5.512-5.512V44.646a5.512 5.512 0 015.512-5.512z" fill="#6DB5FF"/><path d="M60.63 61.732H89.29c.61 0 1.103.494 1.103 1.103v14.33c0 .61-.494 1.103-1.103 1.103H60.63a1.102 1.102 0 01-1.102-1.103v-14.33c0-.61.493-1.103 1.102-1.103zm50.709 69.45a1.102 1.102 0 010 2.204h-50.71a1.102 1.102 0 110-2.205h50.71zm0-11.025a1.102 1.102 0 010 2.205h-50.71a1.102 1.102 0 110-2.205h50.71zm0-11.023a1.102 1.102 0 010 2.205h-50.71a1.102 1.102 0 110-2.205h50.71zm0-11.024a1.102 1.102 0 110 2.205h-50.71a1.102 1.102 0 110-2.205h50.71zm0-11.023a1.102 1.102 0 010 2.204h-50.71a1.102 1.102 0 110-2.204h50.71z" fill="#FFF"/><path d="M101.417 39.134l27.56 27.559h-22.048a5.512 5.512 0 01-5.512-5.512V39.134z" fill="#1A8CFF"/><g fill-rule="nonzero"><path d="M155.918 123.817H128.91V96.81a1.08 1.08 0 00-1.08-1.08c-16.084 0-29.169 13.085-29.169 29.169 0 16.083 13.085 29.168 29.169 29.168s29.168-13.085 29.168-29.168a1.08 1.08 0 00-1.08-1.08z" fill="#FFC95C"/><path d="M136.472 87.087a1.08 1.08 0 00-1.08 1.08v28.088c0 .596.483 1.08 1.08 1.08h28.089a1.08 1.08 0 001.08-1.08c0-16.084-13.085-29.168-29.169-29.168z" fill="#EF7457"/></g></g></g><g mask="url(#b)"><path stroke="#6486A6" stroke-width="2.4" d="M223.65 185.903l-14.686 53.026"/><path d="M219.82 198.237c.987-5.736-.572-10.976-4.678-15.72l18.672 7.167c-5.89.907-10.556 3.758-13.995 8.553z" fill="#6486A6"/><g transform="translate(167.819 239.48)"><mask id="i" fill="#fff"><use xlink:href="#h"/></mask><circle stroke="#6486A6" stroke-width="2.4" cx="35" cy="35" r="36.2"/><g mask="url(#i)"><g transform="translate(13.78 13.78)"><path d="M29.299 0c8.476 0 15.347 6.871 15.347 15.347 0 8.476-6.871 15.347-15.347 15.347a15.38 15.38 0 01-3.73-.456l-3.246 3.246h-2.79l-2.79 2.79v2.791h-2.791l-2.79 2.79v2.79H2.79L0 41.856v-8.37l14.408-14.408a15.38 15.38 0 01-.456-3.73C13.952 6.87 20.822 0 29.299 0z" fill="#FFBA2E"/><circle fill="#FFE8B9" cx="29.299" cy="15.347" r="11.161"/><path d="M18.137 29.299l4.186 4.185h-2.79l-2.79 2.79v2.791h-2.791l-2.79 2.79v2.79H2.79L18.137 29.3z" fill-opacity=".4" fill="#BA7D00"/><path fill="#FFE8B9" d="M0 39.065l16.742-16.742 1.395 1.395L0 41.855z"/></g></g></g><g transform="translate(160 239)"><path d="M14.988 1.466l9.92 19.532a2.679 2.679 0 01-2.388 3.891H2.68A2.679 2.679 0 01.29 20.998l9.921-19.532a2.679 2.679 0 014.777 0z" fill="#EF7457"/><path d="M12.6 7.032a1.616 1.616 0 011.607 1.777l-.634 6.348a.893.893 0 01-.889.804h-.17a.893.893 0 01-.888-.804l-.635-6.348A1.616 1.616 0 0112.6 7.032z" fill="#FFF"/><circle fill="#FFF" cx="12.599" cy="19.532" r="1.786"/></g><path stroke="#6486A6" stroke-width="2.4" d="M426.496 241.5L304.5 166.252"/><path d="M415.393 235.004c5.677 1.286 10.991.004 15.943-3.848l-8.134 18.27c-.598-5.929-3.2-10.737-7.809-14.422z" fill="#6486A6"/><g transform="translate(181.677 52)"><mask id="k" fill="#fff"><use xlink:href="#j"/></mask><circle stroke="#6486A6" stroke-width="2.4" cx="69" cy="69" r="70.2"/><g mask="url(#k)"><g transform="translate(30 30)"><rect fill="#DFE3E8" width="78" height="78" rx="10"/><path d="M63 8c1.933 0 3.683.784 4.95 2.05A6.978 6.978 0 0170 15h0v48a6.978 6.978 0 01-2.05 4.95A6.978 6.978 0 0163 70h0-48a6.978 6.978 0 01-4.95-2.05A6.978 6.978 0 018 63h0V15c0-1.933.784-3.683 2.05-4.95A6.978 6.978 0 0115 8h0z" stroke="#919EAB" stroke-width="2"/><circle stroke="#FFF" stroke-width="6" fill="#C4CDD5" cx="39" cy="39" r="14"/><path d="M39 23a1 1 0 011 1v12.585l8.9-8.899a1 1 0 011.414 1.415l-8.9 8.898L54 38a1 1 0 010 2H41.414l8.9 8.9a1 1 0 01-1.415 1.414L40 41.414V54a1 1 0 01-2 0V41.413l-8.9 8.9a1 1 0 01-1.414-1.414L36.585 40H24a1 1 0 010-2h12.586l-8.9-8.9a1 1 0 011.415-1.414l8.899 8.9V24a1 1 0 011-1z" fill="#919EAB"/><circle fill="#FFF" cx="39" cy="39" r="7"/><path d="M10 46a1 1 0 011 1v12a1 1 0 01-1 1H6a1 1 0 01-1-1V47a1 1 0 011-1h4zm0-28a1 1 0 011 1v12a1 1 0 01-1 1H6a1 1 0 01-1-1V19a1 1 0 011-1h4z" fill="#FFF"/></g></g></g><path stroke="#6486A6" stroke-width="2.4" d="M376.953 74.421l-59.369 25.563"/><path d="M329.518 95.329c-5.08 2.842-8.17 7.351-9.274 13.528l-6.18-19.022c4.412 4.007 9.563 5.839 15.454 5.494z" fill="#6486A6"/><g transform="translate(376.953 27.984)"><mask id="m" fill="#fff"><use xlink:href="#l"/></mask><circle stroke="#6486A6" stroke-width="2.4" cx="35" cy="35" r="36.2"/><g mask="url(#m)"><g transform="translate(18.189 15.433)"><rect fill="#1A8CFF" x="5.512" y="5.512" width="29.764" height="35.276" rx="1.654"/><rect fill="#6DB5FF" width="29.764" height="35.276" rx="1.654"/><path d="M24.803 25.354a.551.551 0 010 1.103H4.961a.551.551 0 010-1.103h19.842zm0-5.511a.551.551 0 010 1.102H4.961a.551.551 0 010-1.102h19.842zm0-5.512a.551.551 0 110 1.102H4.961a.551.551 0 010-1.102h19.842zm0-5.512a.551.551 0 010 1.102H4.961a.551.551 0 110-1.102h19.842z" fill="#FFF"/></g></g></g></g></g></svg>